<svg id="Layer_1" data-name="Layer 1" xmlns="http://www.w3.org/2000/svg" viewBox="0 0 7.11 6.37"><defs><style>.cls-1{fill:#f2ea33;}</style></defs><title>zvijezda</title><path class="cls-1" d="M1.66,6.26a6,6,0,0,1,.27-1.42l.18-.58A.25.25,0,0,0,2,4a3.45,3.45,0,0,0-.63-.45C1.12,3.37.81,3.21.52,3a2.09,2.09,0,0,1-.28-.24s0,0,0-.07a2.78,2.78,0,0,1,.89-.27c.4-.08.81-.13,1.22-.17h.1a.25.25,0,0,0,.19-.17C2.9,1.53,3.12,1,3.4.42A.86.86,0,0,1,3.55.2c.07-.08.13-.09.2,0A1.73,1.73,0,0,1,4,.6c.23.45.44.92.65,1.39a.28.28,0,0,0,.26.18c.33,0,.67.05,1,.09A5,5,0,0,1,7,2.47a1,1,0,0,1,.23.11.18.18,0,0,1,0,.29,1.7,1.7,0,0,1-.34.26,9,9,0,0,1-1.2.6l-.3.13a.21.21,0,0,0-.13.32c.18.41.36.82.51,1.25a4.48,4.48,0,0,1,.2.74l0,.25s0,.06,0,.06a1.19,1.19,0,0,1-.44-.17,7.63,7.63,0,0,1-1-.64l-.77-.59a.24.24,0,0,0-.35,0c-.3.31-.6.62-.93.91A3.16,3.16,0,0,1,2,6.46l-.15,0c-.07,0-.1,0-.12-.08A.59.59,0,0,1,1.66,6.26Z" transform="translate(-0.21 -0.14)"/></svg>